<svg xmlns="http://www.w3.org/2000/svg" width="1205" height="1092" viewBox="0 0 1205 1092" font-family="Helvetica,Arial,sans-serif">
<rect width="1205" height="1092" fill="#ffffff"/>
<path d="M 410.8 832 L 566.8 832 L 566.8 364 L 852.8 364 L 852.8 52 L 124.8 52 L 124.8 364 L 410.8 364 Z" fill="#fbfaf7" stroke="#1f2937" stroke-width="10.4" stroke-linejoin="miter"/>
<path d="M 421.2 821.6 L 556.4 821.6 L 556.4 353.6 L 842.4 353.6 L 842.4 62.4 L 135.2 62.4 L 135.2 353.6 L 421.2 353.6 Z" fill="#ffffff" stroke="#1f2937" stroke-width="1" stroke-linejoin="miter"/>
<rect x="135.2" y="62.4" width="379.60" height="291.20" fill="none" stroke="#94a3b8" stroke-width="1" stroke-dasharray="4 3"/>
<text x="325" y="208" text-anchor="middle" font-family="Helvetica,Arial,sans-serif" font-size="12" font-weight="700" fill="#334155">COCINA · COMEDOR · LIVING</text>
<text x="325" y="222" text-anchor="middle" font-family="Helvetica,Arial,sans-serif" font-size="10" fill="#64748b">40.88 m²</text>
<rect x="514.8" y="62.4" width="327.60" height="291.20" fill="none" stroke="#94a3b8" stroke-width="1" stroke-dasharray="4 3"/>
<text x="678.6" y="208" text-anchor="middle" font-family="Helvetica,Arial,sans-serif" font-size="12" font-weight="700" fill="#334155">DORMITORIO</text>
<text x="678.6" y="222" text-anchor="middle" font-family="Helvetica,Arial,sans-serif" font-size="10" fill="#64748b">35.28 m²</text>
<rect x="421.2" y="374.4" width="135.20" height="447.20" fill="none" stroke="#94a3b8" stroke-width="1" stroke-dasharray="4 3"/>
<text x="488.8" y="598" text-anchor="middle" font-family="Helvetica,Arial,sans-serif" font-size="12" font-weight="700" fill="#334155">ACCESO · ESCALERA</text>
<text x="488.8" y="612" text-anchor="middle" font-family="Helvetica,Arial,sans-serif" font-size="10" fill="#64748b">22.36 m²</text>
<line x1="457.6" y1="832" x2="457.6" y2="780" stroke="#b45309" stroke-width="1.4"/>
<path d="M 457.6 780 A 52.00 52.00 0 0 1 509.6 832" fill="none" stroke="#d97706" stroke-width="1"/>
<line x1="280.8" y1="49.92" x2="384.8" y2="49.92" stroke="#2563eb" stroke-width="2"/>
<line x1="280.8" y1="54.08" x2="384.8" y2="54.08" stroke="#2563eb" stroke-width="2"/>
<line x1="850.72" y1="260" x2="850.72" y2="156" stroke="#2563eb" stroke-width="2"/>
<line x1="854.88" y1="260" x2="854.88" y2="156" stroke="#2563eb" stroke-width="2"/>
<line x1="410.8" y1="860.6" x2="566.8" y2="860.6" stroke="#b91c1c" stroke-width="1"/>
<line x1="410.8" y1="856.6" x2="410.8" y2="864.6" stroke="#b91c1c" stroke-width="1"/>
<line x1="566.8" y1="856.6" x2="566.8" y2="864.6" stroke="#b91c1c" stroke-width="1"/>
<text x="488.8" y="869.96" text-anchor="middle" font-family="Helvetica,Arial,sans-serif" font-size="11" font-weight="600" fill="#b91c1c">3,00</text>
<line x1="595.4" y1="832" x2="595.4" y2="364" stroke="#b91c1c" stroke-width="1"/>
<line x1="591.4" y1="832" x2="599.4" y2="832" stroke="#b91c1c" stroke-width="1"/>
<line x1="591.4" y1="364" x2="599.4" y2="364" stroke="#b91c1c" stroke-width="1"/>
<text x="604.76" y="598" text-anchor="middle" font-family="Helvetica,Arial,sans-serif" font-size="11" font-weight="600" fill="#b91c1c" transform="rotate(-90 604.76 598)">9,00</text>
<line x1="566.8" y1="392.6" x2="852.8" y2="392.6" stroke="#b91c1c" stroke-width="1"/>
<line x1="566.8" y1="388.6" x2="566.8" y2="396.6" stroke="#b91c1c" stroke-width="1"/>
<line x1="852.8" y1="388.6" x2="852.8" y2="396.6" stroke="#b91c1c" stroke-width="1"/>
<text x="709.8" y="401.96" text-anchor="middle" font-family="Helvetica,Arial,sans-serif" font-size="11" font-weight="600" fill="#b91c1c">5,50</text>
<line x1="881.4" y1="364" x2="881.4" y2="52" stroke="#b91c1c" stroke-width="1"/>
<line x1="877.4" y1="364" x2="885.4" y2="364" stroke="#b91c1c" stroke-width="1"/>
<line x1="877.4" y1="52" x2="885.4" y2="52" stroke="#b91c1c" stroke-width="1"/>
<text x="890.76" y="208" text-anchor="middle" font-family="Helvetica,Arial,sans-serif" font-size="11" font-weight="600" fill="#b91c1c" transform="rotate(-90 890.76 208)">6,00</text>
<line x1="852.8" y1="23.4" x2="124.8" y2="23.4" stroke="#b91c1c" stroke-width="1"/>
<line x1="852.8" y1="27.4" x2="852.8" y2="19.4" stroke="#b91c1c" stroke-width="1"/>
<line x1="124.8" y1="27.4" x2="124.8" y2="19.4" stroke="#b91c1c" stroke-width="1"/>
<text x="488.8" y="14.04" text-anchor="middle" font-family="Helvetica,Arial,sans-serif" font-size="11" font-weight="600" fill="#b91c1c">14,00</text>
<line x1="96.2" y1="52" x2="96.2" y2="364" stroke="#b91c1c" stroke-width="1"/>
<line x1="100.2" y1="52" x2="92.2" y2="52" stroke="#b91c1c" stroke-width="1"/>
<line x1="100.2" y1="364" x2="92.2" y2="364" stroke="#b91c1c" stroke-width="1"/>
<text x="86.84" y="208" text-anchor="middle" font-family="Helvetica,Arial,sans-serif" font-size="11" font-weight="600" fill="#b91c1c" transform="rotate(-90 86.84 208)">6,00</text>
<line x1="124.8" y1="392.6" x2="410.8" y2="392.6" stroke="#b91c1c" stroke-width="1"/>
<line x1="124.8" y1="388.6" x2="124.8" y2="396.6" stroke="#b91c1c" stroke-width="1"/>
<line x1="410.8" y1="388.6" x2="410.8" y2="396.6" stroke="#b91c1c" stroke-width="1"/>
<text x="267.8" y="401.96" text-anchor="middle" font-family="Helvetica,Arial,sans-serif" font-size="11" font-weight="600" fill="#b91c1c">5,50</text>
<line x1="382.2" y1="364" x2="382.2" y2="832" stroke="#b91c1c" stroke-width="1"/>
<line x1="386.2" y1="364" x2="378.2" y2="364" stroke="#b91c1c" stroke-width="1"/>
<line x1="386.2" y1="832" x2="378.2" y2="832" stroke="#b91c1c" stroke-width="1"/>
<text x="372.84" y="598" text-anchor="middle" font-family="Helvetica,Arial,sans-serif" font-size="11" font-weight="600" fill="#b91c1c" transform="rotate(-90 372.84 598)">9,00</text>
<line x1="124.8" y1="904.8" x2="852.8" y2="904.8" stroke="#b91c1c" stroke-width="1"/>
<line x1="124.8" y1="900.8" x2="124.8" y2="908.8" stroke="#b91c1c" stroke-width="1"/>
<line x1="852.8" y1="900.8" x2="852.8" y2="908.8" stroke="#b91c1c" stroke-width="1"/>
<text x="488.8" y="915.2" text-anchor="middle" font-family="Helvetica,Arial,sans-serif" font-size="13" font-weight="700" fill="#b91c1c">14,00</text>
<line x1="52" y1="832" x2="52" y2="52" stroke="#b91c1c" stroke-width="1"/>
<line x1="48" y1="832" x2="56" y2="832" stroke="#b91c1c" stroke-width="1"/>
<line x1="48" y1="52" x2="56" y2="52" stroke="#b91c1c" stroke-width="1"/>
<text x="41.6" y="442" text-anchor="middle" font-family="Helvetica,Arial,sans-serif" font-size="13" font-weight="700" fill="#b91c1c" transform="rotate(-90 41.6 442)">15,00</text>
<circle cx="974.8" cy="50" r="22" fill="none" stroke="#374151" stroke-width="1.2"/>
<path d="M 974.8 30 L 967.8 56 L 974.8 50 L 981.8 56 Z" fill="#374151"/>
<text x="974.8" y="24" text-anchor="middle" font-family="Helvetica,Arial,sans-serif" font-size="12" font-weight="700" fill="#374151">N</text>
<text x="944.8" y="142" font-family="Helvetica,Arial,sans-serif" font-size="10" fill="#6b7280">ESCALA GRÁFICA</text>
<rect x="944.8" y="150" width="52" height="6" fill="#374151" stroke="#374151" stroke-width="0.8"/>
<rect x="996.8" y="150" width="52" height="6" fill="#fff" stroke="#374151" stroke-width="0.8"/>
<rect x="1048.8" y="150" width="52" height="6" fill="#374151" stroke="#374151" stroke-width="0.8"/>
<rect x="1100.8" y="150" width="52" height="6" fill="#fff" stroke="#374151" stroke-width="0.8"/>
<rect x="1152.8" y="150" width="52" height="6" fill="#374151" stroke="#374151" stroke-width="0.8"/>
<text x="944.8" y="168" text-anchor="middle" font-family="Helvetica,Arial,sans-serif" font-size="9" fill="#6b7280">0</text>
<text x="996.8" y="168" text-anchor="middle" font-family="Helvetica,Arial,sans-serif" font-size="9" fill="#6b7280">1</text>
<text x="1048.8" y="168" text-anchor="middle" font-family="Helvetica,Arial,sans-serif" font-size="9" fill="#6b7280">2</text>
<text x="1100.8" y="168" text-anchor="middle" font-family="Helvetica,Arial,sans-serif" font-size="9" fill="#6b7280">3</text>
<text x="1152.8" y="168" text-anchor="middle" font-family="Helvetica,Arial,sans-serif" font-size="9" fill="#6b7280">4</text>
<text x="1204.8" y="168" text-anchor="middle" font-family="Helvetica,Arial,sans-serif" font-size="9" fill="#6b7280">5</text>
<text x="1214.8" y="156" font-family="Helvetica,Arial,sans-serif" font-size="9" fill="#6b7280">m</text>
<rect x="0" y="1014" width="904.8" height="78" fill="#1A3A5C"/>
<line x1="560.976" y1="1014" x2="560.976" y2="1092" stroke="#3c5a78"/>
<line x1="0" y1="1053" x2="904.8" y2="1053" stroke="#3c5a78"/>
<text x="12" y="1029" font-family="Helvetica,Arial,sans-serif" font-size="8.5" fill="#9bb3cc" letter-spacing="1">PROYECTO</text>
<text x="12" y="1045" font-family="Helvetica,Arial,sans-serif" font-size="14" font-weight="700" fill="#fff">Vivienda unifamiliar — Reconstrucción</text>
<text x="12" y="1068" font-family="Helvetica,Arial,sans-serif" font-size="8.5" fill="#9bb3cc" letter-spacing="1">CLIENTE</text>
<text x="12" y="1084" font-family="Helvetica,Arial,sans-serif" font-size="11" font-weight="500" fill="#fff">Dolores, Uruguay</text>
<text x="572.976" y="1029" font-family="Helvetica,Arial,sans-serif" font-size="8.5" fill="#9bb3cc" letter-spacing="1">LÁMINA</text>
<text x="572.976" y="1045" font-family="Helvetica,Arial,sans-serif" font-size="14" font-weight="700" fill="#fff">Lám. 01</text>
<text x="572.976" y="1068" font-family="Helvetica,Arial,sans-serif" font-size="8.5" fill="#9bb3cc" letter-spacing="1">ESCALA / FECHA</text>
<text x="572.976" y="1084" font-family="Helvetica,Arial,sans-serif" font-size="11" font-weight="500" fill="#fff">1:100  ·  2026-06-24</text>
<text x="892.8" y="1084" text-anchor="end" font-family="Helvetica,Arial,sans-serif" font-size="9" fill="#9bb3cc">BMC · METALOG SAS</text>
</svg>