0
SECTION
2
HEADER
9
$ACADVER
1
AC1021
9
$LASTSAVEDBY
1
@tarikjabiri/dxf
9
$HANDSEED
5
5C
9
$INSUNITS
70
6
9
$CLAYER
8
A-ANNO-TTLB
9
$MEASUREMENT
70
1
9
$VIEWCTR
10
6.564999999999998
20
5.914999999999992
0
ENDSEC
0
SECTION
2
CLASSES
0
ENDSEC
0
SECTION
2
TABLES
0
TABLE
2
VPORT
5
1
330
0
100
AcDbSymbolTable
70
1
0
VPORT
5
19
330
1
100
AcDbSymbolTableRecord
100
AcDbViewportTableRecord
2
*Active
70
0
10
0
20
0
11
1
21
1
12
6.564999999999998
22
5.914999999999992
13
0
23
0
14
10
24
10
15
10
25
10
16
0
26
0
36
1
17
0
27
0
37
0
40
219.63
41
2
42
50
43
0
44
0
50
0
51
0
71
0
72
100
73
1
74
3
75
0
76
1
77
0
78
0
281
0
65
1
110
0
120
0
130
0
111
1
121
0
131
0
112
0
122
1
132
0
79
0
146
0
348
10020
60
7
61
5
292
1
282
1
141
0
142
0
63
250
421
3358443
0
ENDTAB
0
TABLE
2
LTYPE
5
2
330
0
100
AcDbSymbolTable
70
3
0
LTYPE
5
12
330
2
100
AcDbSymbolTableRecord
100
AcDbLinetypeTableRecord
2
ByBlock
70
0
3

72
65
73
0
40
0
0
LTYPE
5
13
330
2
100
AcDbSymbolTableRecord
100
AcDbLinetypeTableRecord
2
ByLayer
70
0
3

72
65
73
0
40
0
0
LTYPE
5
14
330
2
100
AcDbSymbolTableRecord
100
AcDbLinetypeTableRecord
2
Continuous
70
0
3
Solid line
72
65
73
0
40
0
0
ENDTAB
0
TABLE
2
LAYER
5
3
330
0
100
AcDbSymbolTable
70
6
0
LAYER
5
15
330
3
100
AcDbSymbolTableRecord
100
AcDbLayerTableRecord
2
0
70
0
62
7
6
Continuous
370
0
390
0
0
LAYER
5
1A
330
3
100
AcDbSymbolTableRecord
100
AcDbLayerTableRecord
2
A-WALL
70
0
62
7
6
Continuous
370
0
390
0
0
LAYER
5
1B
330
3
100
AcDbSymbolTableRecord
100
AcDbLayerTableRecord
2
A-ANNO-DIMS
70
0
62
1
6
Continuous
370
0
390
0
0
LAYER
5
1C
330
3
100
AcDbSymbolTableRecord
100
AcDbLayerTableRecord
2
A-ANNO-TEXT
70
0
62
3
6
Continuous
370
0
390
0
0
LAYER
5
1D
330
3
100
AcDbSymbolTableRecord
100
AcDbLayerTableRecord
2
A-AREA-IDEN
70
0
62
4
6
Continuous
370
0
390
0
0
LAYER
5
1E
330
3
100
AcDbSymbolTableRecord
100
AcDbLayerTableRecord
2
A-ANNO-TTLB
70
0
62
2
6
Continuous
370
0
390
0
0
ENDTAB
0
TABLE
2
STYLE
5
4
330
0
100
AcDbSymbolTable
70
1
0
STYLE
5
16
330
4
100
AcDbSymbolTableRecord
100
AcDbTextStyleTableRecord
2
Standard
70
0
40
0
41
1
50
0
71
0
42
1
3
txt
4

0
ENDTAB
0
TABLE
2
VIEW
5
5
330
0
100
AcDbSymbolTable
70
0
0
ENDTAB
0
TABLE
2
UCS
5
6
330
0
100
AcDbSymbolTable
70
0
0
ENDTAB
0
TABLE
2
APPID
5
7
330
0
100
AcDbSymbolTable
70
1
0
APPID
5
17
330
7
100
AcDbSymbolTableRecord
100
AcDbRegAppTableRecord
2
ACAD
70
0
0
ENDTAB
0
TABLE
2
DIMSTYLE
5
8
330
0
100
AcDbSymbolTable
70
1
100
AcDbDimStyleTable
0
DIMSTYLE
105
18
330
8
100
AcDbSymbolTableRecord
100
AcDbDimStyleTableRecord
2
Standard
70
0
340
16
0
ENDTAB
0
TABLE
2
BLOCK_RECORD
5
9
330
0
100
AcDbSymbolTable
70
2
0
BLOCK_RECORD
5
C
330
9
100
AcDbSymbolTableRecord
100
AcDbBlockTableRecord
2
*Model_Space
70
0
280
1
281
0
0
BLOCK_RECORD
5
F
330
9
100
AcDbSymbolTableRecord
100
AcDbBlockTableRecord
2
*Paper_Space
70
0
280
1
281
0
0
ENDTAB
0
ENDSEC
0
SECTION
2
BLOCKS
0
BLOCK
5
D
330
C
100
AcDbEntity
8
A-ANNO-TTLB
100
AcDbBlockBegin
2
*Model_Space
70
0
10
0
20
0
30
0
3
*Model_Space
1

0
ENDBLK
5
E
100
AcDbEntity
8
0
100
AcDbBlockEnd
0
BLOCK
5
10
330
F
100
AcDbEntity
8
0
100
AcDbBlockBegin
2
*Paper_Space
70
0
10
0
20
0
30
0
3
*Paper_Space
1

0
ENDBLK
5
11
100
AcDbEntity
8
0
100
AcDbBlockEnd
0
ENDSEC
0
SECTION
2
ENTITIES
0
LINE
5
1F
330
C
100
AcDbEntity
8
A-WALL
100
AcDbLine
10
5.5
20
0
30
0
11
8.5
21
0
31
0
0
LINE
5
20
330
C
100
AcDbEntity
8
A-WALL
100
AcDbLine
10
8.5
20
0
30
0
11
8.5
21
9
31
0
0
LINE
5
21
330
C
100
AcDbEntity
8
A-WALL
100
AcDbLine
10
8.5
20
9
30
0
11
14
21
9
31
0
0
LINE
5
22
330
C
100
AcDbEntity
8
A-WALL
100
AcDbLine
10
14
20
9
30
0
11
14
21
15
31
0
0
LINE
5
23
330
C
100
AcDbEntity
8
A-WALL
100
AcDbLine
10
14
20
15
30
0
11
0
21
15
31
0
0
LINE
5
24
330
C
100
AcDbEntity
8
A-WALL
100
AcDbLine
10
0
20
15
30
0
11
0
21
9
31
0
0
LINE
5
25
330
C
100
AcDbEntity
8
A-WALL
100
AcDbLine
10
0
20
9
30
0
11
5.5
21
9
31
0
0
LINE
5
26
330
C
100
AcDbEntity
8
A-WALL
100
AcDbLine
10
5.5
20
9
30
0
11
5.5
21
0
31
0
0
LINE
5
27
330
C
100
AcDbEntity
8
A-WALL
100
AcDbLine
10
5.7
20
0.1999999999999993
30
0
11
8.3
21
0.2
31
0
0
LINE
5
28
330
C
100
AcDbEntity
8
A-WALL
100
AcDbLine
10
8.3
20
0.2
30
0
11
8.3
21
9.2
31
0
0
LINE
5
29
330
C
100
AcDbEntity
8
A-WALL
100
AcDbLine
10
8.3
20
9.2
30
0
11
13.8
21
9.2
31
0
0
LINE
5
2A
330
C
100
AcDbEntity
8
A-WALL
100
AcDbLine
10
13.8
20
9.2
30
0
11
13.8
21
14.8
31
0
0
LINE
5
2B
330
C
100
AcDbEntity
8
A-WALL
100
AcDbLine
10
13.8
20
14.8
30
0
11
0.1999999999999993
21
14.8
31
0
0
LINE
5
2C
330
C
100
AcDbEntity
8
A-WALL
100
AcDbLine
10
0.1999999999999993
20
14.8
30
0
11
0.2
21
9.2
31
0
0
LINE
5
2D
330
C
100
AcDbEntity
8
A-WALL
100
AcDbLine
10
0.2
20
9.2
30
0
11
5.7
21
9.2
31
0
0
LINE
5
2E
330
C
100
AcDbEntity
8
A-WALL
100
AcDbLine
10
5.7
20
9.2
30
0
11
5.7
21
0.1999999999999993
31
0
0
LINE
5
2F
330
C
100
AcDbEntity
8
A-ANNO-DIMS
100
AcDbLine
10
5.5
20
-0.55
30
0
11
8.5
21
-0.55
31
0
0
LINE
5
30
330
C
100
AcDbEntity
8
A-ANNO-DIMS
100
AcDbLine
10
5.5
20
-0.63
30
0
11
5.5
21
-0.47000000000000003
31
0
0
LINE
5
31
330
C
100
AcDbEntity
8
A-ANNO-DIMS
100
AcDbLine
10
8.5
20
-0.63
30
0
11
8.5
21
-0.47000000000000003
31
0
0
TEXT
5
32
330
C
100
AcDbEntity
8
A-ANNO-DIMS
100
AcDbText
10
7
20
-0.73
30
0
40
0.28
1
3,00
50
0
7
STANDARD
100
AcDbText
0
LINE
5
33
330
C
100
AcDbEntity
8
A-ANNO-DIMS
100
AcDbLine
10
9.05
20
0
30
0
11
9.05
21
9
31
0
0
LINE
5
34
330
C
100
AcDbEntity
8
A-ANNO-DIMS
100
AcDbLine
10
9.13
20
0
30
0
11
8.97
21
0
31
0
0
LINE
5
35
330
C
100
AcDbEntity
8
A-ANNO-DIMS
100
AcDbLine
10
9.13
20
9
30
0
11
8.97
21
9
31
0
0
TEXT
5
36
330
C
100
AcDbEntity
8
A-ANNO-DIMS
100
AcDbText
10
9.23
20
4.5
30
0
40
0.28
1
9,00
50
90
7
STANDARD
100
AcDbText
0
LINE
5
37
330
C
100
AcDbEntity
8
A-ANNO-DIMS
100
AcDbLine
10
8.5
20
8.45
30
0
11
14
21
8.45
31
0
0
LINE
5
38
330
C
100
AcDbEntity
8
A-ANNO-DIMS
100
AcDbLine
10
8.5
20
8.37
30
0
11
8.5
21
8.53
31
0
0
LINE
5
39
330
C
100
AcDbEntity
8
A-ANNO-DIMS
100
AcDbLine
10
14
20
8.37
30
0
11
14
21
8.53
31
0
0
TEXT
5
3A
330
C
100
AcDbEntity
8
A-ANNO-DIMS
100
AcDbText
10
11.25
20
8.27
30
0
40
0.28
1
5,50
50
0
7
STANDARD
100
AcDbText
0
LINE
5
3B
330
C
100
AcDbEntity
8
A-ANNO-DIMS
100
AcDbLine
10
14.55
20
9
30
0
11
14.55
21
15
31
0
0
LINE
5
3C
330
C
100
AcDbEntity
8
A-ANNO-DIMS
100
AcDbLine
10
14.63
20
9
30
0
11
14.47
21
9
31
0
0
LINE
5
3D
330
C
100
AcDbEntity
8
A-ANNO-DIMS
100
AcDbLine
10
14.63
20
15
30
0
11
14.47
21
15
31
0
0
TEXT
5
3E
330
C
100
AcDbEntity
8
A-ANNO-DIMS
100
AcDbText
10
14.73
20
12
30
0
40
0.28
1
6,00
50
90
7
STANDARD
100
AcDbText
0
LINE
5
3F
330
C
100
AcDbEntity
8
A-ANNO-DIMS
100
AcDbLine
10
14
20
15.55
30
0
11
0
21
15.55
31
0
0
LINE
5
40
330
C
100
AcDbEntity
8
A-ANNO-DIMS
100
AcDbLine
10
14
20
15.63
30
0
11
14
21
15.47
31
0
0
LINE
5
41
330
C
100
AcDbEntity
8
A-ANNO-DIMS
100
AcDbLine
10
0
20
15.63
30
0
11
0
21
15.47
31
0
0
TEXT
5
42
330
C
100
AcDbEntity
8
A-ANNO-DIMS
100
AcDbText
10
7
20
15.73
30
0
40
0.28
1
14,00
50
0
7
STANDARD
100
AcDbText
0
LINE
5
43
330
C
100
AcDbEntity
8
A-ANNO-DIMS
100
AcDbLine
10
-0.55
20
15
30
0
11
-0.55
21
9
31
0
0
LINE
5
44
330
C
100
AcDbEntity
8
A-ANNO-DIMS
100
AcDbLine
10
-0.63
20
15
30
0
11
-0.47000000000000003
21
15
31
0
0
LINE
5
45
330
C
100
AcDbEntity
8
A-ANNO-DIMS
100
AcDbLine
10
-0.63
20
9
30
0
11
-0.47000000000000003
21
9
31
0
0
TEXT
5
46
330
C
100
AcDbEntity
8
A-ANNO-DIMS
100
AcDbText
10
-0.73
20
12
30
0
40
0.28
1
6,00
50
90
7
STANDARD
100
AcDbText
0
LINE
5
47
330
C
100
AcDbEntity
8
A-ANNO-DIMS
100
AcDbLine
10
0
20
8.45
30
0
11
5.5
21
8.45
31
0
0
LINE
5
48
330
C
100
AcDbEntity
8
A-ANNO-DIMS
100
AcDbLine
10
0
20
8.37
30
0
11
0
21
8.53
31
0
0
LINE
5
49
330
C
100
AcDbEntity
8
A-ANNO-DIMS
100
AcDbLine
10
5.5
20
8.37
30
0
11
5.5
21
8.53
31
0
0
TEXT
5
4A
330
C
100
AcDbEntity
8
A-ANNO-DIMS
100
AcDbText
10
2.75
20
8.27
30
0
40
0.28
1
5,50
50
0
7
STANDARD
100
AcDbText
0
LINE
5
4B
330
C
100
AcDbEntity
8
A-ANNO-DIMS
100
AcDbLine
10
4.95
20
9
30
0
11
4.95
21
0
31
0
0
LINE
5
4C
330
C
100
AcDbEntity
8
A-ANNO-DIMS
100
AcDbLine
10
4.87
20
9
30
0
11
5.03
21
9
31
0
0
LINE
5
4D
330
C
100
AcDbEntity
8
A-ANNO-DIMS
100
AcDbLine
10
4.87
20
0
30
0
11
5.03
21
0
31
0
0
TEXT
5
4E
330
C
100
AcDbEntity
8
A-ANNO-DIMS
100
AcDbText
10
4.77
20
4.5
30
0
40
0.28
1
9,00
50
90
7
STANDARD
100
AcDbText
0
LINE
5
4F
330
C
100
AcDbEntity
8
A-ANNO-DIMS
100
AcDbLine
10
0
20
-1.4
30
0
11
14
21
-1.4
31
0
0
LINE
5
50
330
C
100
AcDbEntity
8
A-ANNO-DIMS
100
AcDbLine
10
0
20
-1.48
30
0
11
0
21
-1.3199999999999998
31
0
0
LINE
5
51
330
C
100
AcDbEntity
8
A-ANNO-DIMS
100
AcDbLine
10
14
20
-1.48
30
0
11
14
21
-1.3199999999999998
31
0
0
TEXT
5
52
330
C
100
AcDbEntity
8
A-ANNO-DIMS
100
AcDbText
10
7
20
-1.5999999999999999
30
0
40
0.28
1
14,00
50
0
7
STANDARD
100
AcDbText
0
LINE
5
53
330
C
100
AcDbEntity
8
A-ANNO-DIMS
100
AcDbLine
10
-1.4
20
0
30
0
11
-1.4
21
15
31
0
0
LINE
5
54
330
C
100
AcDbEntity
8
A-ANNO-DIMS
100
AcDbLine
10
-1.3199999999999998
20
0
30
0
11
-1.48
21
0
31
0
0
LINE
5
55
330
C
100
AcDbEntity
8
A-ANNO-DIMS
100
AcDbLine
10
-1.3199999999999998
20
15
30
0
11
-1.48
21
15
31
0
0
TEXT
5
56
330
C
100
AcDbEntity
8
A-ANNO-DIMS
100
AcDbText
10
-1.5999999999999999
20
7.5
30
0
40
0.28
1
15,00
50
90
7
STANDARD
100
AcDbText
0
TEXT
5
57
330
C
100
AcDbEntity
8
A-AREA-IDEN
100
AcDbText
10
7
20
7.5
30
0
40
0.32
1
SUP. 111 m²
7
STANDARD
72
1
100
AcDbText
0
TEXT
5
58
330
C
100
AcDbEntity
8
A-ANNO-TTLB
100
AcDbText
10
0
20
-2.6
30
0
40
0.45
1
VIVIENDA UNIFAMILIAR — RECONSTRUCCIÓN
7
STANDARD
100
AcDbText
0
TEXT
5
59
330
C
100
AcDbEntity
8
A-ANNO-TTLB
100
AcDbText
10
0
20
-3.3
30
0
40
0.28
1
Planta de perímetro y cubierta · Esc. 1:100
7
STANDARD
100
AcDbText
0
TEXT
5
5A
330
C
100
AcDbEntity
8
A-ANNO-TTLB
100
AcDbText
10
0
20
-3.9000000000000004
30
0
40
0.22
1
BMC · METALOG SAS — Dolores, Uruguay · PROPUESTA (borrador para revisión)
7
STANDARD
100
AcDbText
0
TEXT
5
5B
330
C
100
AcDbEntity
8
A-ANNO-TTLB
100
AcDbText
10
14
20
-2.6
30
0
40
0.28
1
Lám. 01
7
STANDARD
72
2
100
AcDbText
0
ENDSEC
0
SECTION
2
OBJECTS
0
DICTIONARY
5
A
330
0
100
AcDbDictionary
281
1
3
ACAD_GROUP
350
B
0
DICTIONARY
5
B
330
A
100
AcDbDictionary
281
0
0
ENDSEC
0
EOF