<svg xmlns="http://www.w3.org/2000/svg" width="390" height="844" viewBox="0 0 390 844" role="img" aria-labelledby="title-profile"><title id="title-profile">05 · Perfil del conductor</title><desc>BMC Driver, rediseño móvil. Datos de demostración. Capas vectoriales editables.</desc><defs><linearGradient id="glow-profile" x1="0" y1="0" x2="1" y2="1"><stop stop-color="#20466a"/><stop offset="1" stop-color="#0c1a2e"/></linearGradient></defs><rect x="0" y="0" width="390" height="844" rx="0" fill="#07111f"/><text x="24" y="26" font-family="Inter, Arial, sans-serif" font-size="12" font-weight="600" fill="#f4f7fb" text-anchor="start">9:41</text><path d="M310 23v-4m5 4v-7m5 7V13" stroke="#f4f7fb" stroke-width="3"/><g transform="translate(329 11) scale(0.5833333333333334)" fill="none" stroke="#f4f7fb" stroke-width="1.7" stroke-linecap="round" stroke-linejoin="round"><path d="M2 8a16 16 0 0 1 20 0M5 12a11 11 0 0 1 14 0M9 16a5 5 0 0 1 6 0M12 20h.01"/></g><rect x="352" y="13" width="22" height="11" rx="3" fill="none" stroke="#f4f7fb"/><rect x="355" y="16" width="15" height="5" rx="1" fill="#f4f7fb"/><text x="20" y="63" font-family="Inter, Arial, sans-serif" font-size="11" font-weight="700" fill="#f15a24" text-anchor="start" letter-spacing="1.2">BMC DRIVER</text><text x="20" y="102" font-family="Inter, Arial, sans-serif" font-size="26" font-weight="700" fill="#f4f7fb" text-anchor="start" letter-spacing="-0.6">Mi perfil</text><circle cx="51" cy="151" r="31" fill="#122033"/><text x="51" y="158" font-family="Inter, Arial, sans-serif" font-size="20" font-weight="700" fill="#f4f7fb" text-anchor="middle">JP</text><text x="98" y="146" font-family="Inter, Arial, sans-serif" font-size="20" font-weight="700" fill="#f4f7fb" text-anchor="start">Juan Pérez</text><text x="98" y="171" font-family="Inter, Arial, sans-serif" font-size="12" font-weight="400" fill="#9aabc0" text-anchor="start">Chofer · BMC Uruguay</text><rect x="20" y="202" width="350" height="298" rx="16" fill="#122033"/><text x="36" y="231" font-family="Inter, Arial, sans-serif" font-size="16" font-weight="700" fill="#f4f7fb" text-anchor="start">Datos del conductor</text><text x="36" y="260" font-family="Inter, Arial, sans-serif" font-size="12" font-weight="600" fill="#9aabc0" text-anchor="start">Nombre completo</text><rect x="36" y="270" width="318" height="48" rx="12" fill="#0b1726" stroke="#2a3d55"/><text x="50" y="300" font-family="Inter, Arial, sans-serif" font-size="15" font-weight="400" fill="#f4f7fb" text-anchor="start">Juan Pérez</text><text x="36" y="337" font-family="Inter, Arial, sans-serif" font-size="12" font-weight="600" fill="#9aabc0" text-anchor="start">Teléfono</text><rect x="36" y="347" width="318" height="48" rx="12" fill="#0b1726" stroke="#2a3d55"/><text x="50" y="377" font-family="Inter, Arial, sans-serif" font-size="15" font-weight="400" fill="#f4f7fb" text-anchor="start">099 000 000</text><text x="36" y="414" font-family="Inter, Arial, sans-serif" font-size="12" font-weight="600" fill="#9aabc0" text-anchor="start">Email</text><rect x="36" y="424" width="318" height="48" rx="12" fill="#0b1726" stroke="#2a3d55"/><text x="50" y="454" font-family="Inter, Arial, sans-serif" font-size="15" font-weight="400" fill="#f4f7fb" text-anchor="start">juan@example.com</text><rect x="20" y="516" width="350" height="52" rx="14" fill="#1e3a8a"/><text x="40" y="549" font-family="Inter, Arial, sans-serif" font-size="16" font-weight="700" fill="#f4f7fb" text-anchor="start">Guardar perfil</text><g transform="translate(328 531) scale(0.9166666666666666)" fill="none" stroke="#f4f7fb" stroke-width="1.7" stroke-linecap="round" stroke-linejoin="round"><path d="m5 12 4 4L19 6"/></g><rect x="20" y="584" width="350" height="60" rx="16" fill="#122033"/><g transform="translate(35 602) scale(0.9583333333333334)" fill="none" stroke="#f4f7fb" stroke-width="1.7" stroke-linecap="round" stroke-linejoin="round"><path d="M20 15A9 9 0 0 1 9 3a9 9 0 1 0 11 12"/></g><text x="70" y="609" font-family="Inter, Arial, sans-serif" font-size="14" font-weight="600" fill="#f4f7fb" text-anchor="start">Outdoor / Night</text><text x="70" y="630" font-family="Inter, Arial, sans-serif" font-size="11" font-weight="400" fill="#9aabc0" text-anchor="start">Texto mediano</text><rect x="282" y="601" width="73" height="25" rx="12" fill="#172e29"/><text x="318.5" y="618" font-family="Inter, Arial, sans-serif" font-size="11" font-weight="600" fill="#22c55e" text-anchor="middle">Activo</text><rect x="20" y="656" width="350" height="43" rx="12" fill="#102720"/><g transform="translate(34 667) scale(0.8333333333333334)" fill="none" stroke="#22c55e" stroke-width="1.7" stroke-linecap="round" stroke-linejoin="round"><path d="M20 7a9 9 0 0 0-15-2L2 8m0-5v5h5M4 17a9 9 0 0 0 15 2l3-3m0 5v-5h-5"/></g><text x="65" y="682" font-family="Inter, Arial, sans-serif" font-size="12" font-weight="600" fill="#22c55e" text-anchor="start">En línea · Sin pendientes</text><a href="#login" data-screen="login" aria-label="Cerrar sesión"><rect x="20" y="703" width="350" height="48" fill="transparent"/><g transform="translate(111 718) scale(0.7916666666666666)" fill="none" stroke="#ff8d8d" stroke-width="1.7" stroke-linecap="round" stroke-linejoin="round"><path d="M10 3H3v18h7M8 12h14m-5-5 5 5-5 5"/></g><text x="145" y="733" font-family="Inter, Arial, sans-serif" font-size="13" font-weight="600" fill="#ff8d8d" text-anchor="start">Cerrar sesión</text></a><rect x="0" y="759" width="390" height="85" rx="0" fill="#0a1524"/><path d="M0 759H390" stroke="#2a3d55"/><a href="#home" data-screen="home" aria-label="Inicio"><rect x="5.0" y="764" width="88" height="56" fill="transparent"/><g transform="translate(38.0 772) scale(0.9166666666666666)" fill="none" stroke="#9aabc0" stroke-width="1.7" stroke-linecap="round" stroke-linejoin="round"><path d="M3 10 12 3 21 10v10h-6v-6H9v6H3Z"/></g><text x="49.0" y="811" font-family="Inter, Arial, sans-serif" font-size="11" font-weight="600" fill="#9aabc0" text-anchor="middle">Inicio</text></a><a href="#load" data-screen="load" aria-label="Carga"><rect x="102.5" y="764" width="88" height="56" fill="transparent"/><g transform="translate(135.5 772) scale(0.9166666666666666)" fill="none" stroke="#9aabc0" stroke-width="1.7" stroke-linecap="round" stroke-linejoin="round"><path d="m3 7 9-4 9 4-9 4Zm0 0v10l9 4 9-4V7M12 11v10M7 5l9 4"/></g><text x="146.5" y="811" font-family="Inter, Arial, sans-serif" font-size="11" font-weight="600" fill="#9aabc0" text-anchor="middle">Carga</text></a><a href="#done" data-screen="done" aria-label="Listo"><rect x="200.0" y="764" width="88" height="56" fill="transparent"/><g transform="translate(233.0 772) scale(0.9166666666666666)" fill="none" stroke="#9aabc0" stroke-width="1.7" stroke-linecap="round" stroke-linejoin="round"><path d="m5 12 4 4L19 6"/></g><text x="244.0" y="811" font-family="Inter, Arial, sans-serif" font-size="11" font-weight="600" fill="#9aabc0" text-anchor="middle">Listo</text></a><a href="#profile" data-screen="profile" aria-label="Perfil"><rect x="297.5" y="764" width="88" height="56" fill="transparent"/><rect x="319.5" y="758" width="44" height="3" rx="1" fill="#f15a24"/><g transform="translate(330.5 772) scale(0.9166666666666666)" fill="none" stroke="#f15a24" stroke-width="1.7" stroke-linecap="round" stroke-linejoin="round"><path d="M16 7a4 4 0 1 1-8 0 4 4 0 0 1 8 0M4 21v-2a8 8 0 0 1 16 0v2"/></g><text x="341.5" y="811" font-family="Inter, Arial, sans-serif" font-size="11" font-weight="600" fill="#f15a24" text-anchor="middle">Perfil</text></a><rect x="129" y="831" width="132" height="4" rx="2" fill="#f4f7fb"/></svg>