<svg xmlns="http://www.w3.org/2000/svg" width="1238" height="700" viewBox="0 0 1238 700" font-family="Helvetica,Arial">
<defs><marker id="arr" markerWidth="8" markerHeight="8" refX="6" refY="4" orient="auto"><path d="M0,0 L8,4 L0,8 Z" fill="#4338ca"/></marker></defs>
<rect width="1238" height="700" fill="#ffffff"/>
<rect x="150" y="140" width="728" height="312" fill="#fbfaf7"/>
<rect x="358" y="452" width="312" height="156" fill="#f4f1ea"/>
<rect x="545.2" y="140" width="93.60000000000001" height="156" fill="#eaf2f8"/>
<rect x="243.60000000000002" y="316.79999999999995" width="93.60000000000001" height="135.20000000000002" fill="#eaf2f8"/>
<line x1="337.20000000000005" y1="140" x2="337.20000000000005" y2="452" stroke="#1f2937" stroke-width="5.2" stroke-linecap="square"/>
<line x1="545.2" y1="140" x2="545.2" y2="452" stroke="#1f2937" stroke-width="5.2" stroke-linecap="square"/>
<line x1="638.8" y1="140" x2="638.8" y2="452" stroke="#1f2937" stroke-width="5.2" stroke-linecap="square"/>
<line x1="758.4" y1="140" x2="758.4" y2="452" stroke="#1f2937" stroke-width="5.2" stroke-linecap="square"/>
<line x1="150" y1="316.79999999999995" x2="337.20000000000005" y2="316.79999999999995" stroke="#1f2937" stroke-width="5.2" stroke-linecap="square"/>
<line x1="243.60000000000002" y1="316.79999999999995" x2="243.60000000000002" y2="452" stroke="#1f2937" stroke-width="5.2" stroke-linecap="square"/>
<line x1="545.2" y1="296" x2="638.8" y2="296" stroke="#1f2937" stroke-width="5.2" stroke-linecap="square"/>
<line x1="514" y1="452" x2="514" y2="608" stroke="#1f2937" stroke-width="5.2" stroke-linecap="square"/>
<path d="M 150 140 H 878 V 452 H 670 V 608 H 358 V 452 H 150 Z" fill="none" stroke="#1f2937" stroke-width="10.4" stroke-linejoin="miter"/>
<text x="243.60000000000002" y="238.8" text-anchor="middle" font-family="Helvetica,Arial" font-size="14" font-weight="700" fill="#111827" letter-spacing=".5">DORMITORIO 2</text>
<text x="243.60000000000002" y="254.8" text-anchor="middle" font-family="Helvetica,Arial" font-size="11" fill="#6b7280">12,2 m²</text>
<text x="290.4" y="394.8" text-anchor="middle" font-family="Helvetica,Arial" font-size="14" font-weight="700" fill="#111827" letter-spacing=".5">PLACARD</text>
<text x="202" y="394.8" text-anchor="middle" font-family="Helvetica,Arial" font-size="14" font-weight="700" fill="#111827" letter-spacing=".5">BAÑO 2</text>
<text x="441.2" y="296" text-anchor="middle" font-family="Helvetica,Arial" font-size="14" font-weight="700" fill="#111827" letter-spacing=".5">COCINA · COMEDOR · LIVING</text>
<text x="441.2" y="312" text-anchor="middle" font-family="Helvetica,Arial" font-size="11" fill="#6b7280">24,0 m²</text>
<text x="441.2" y="280" text-anchor="middle" font-family="Helvetica,Arial" font-size="9.5" fill="#9ca3af" letter-spacing="2">ESTAR PRINCIPAL</text>
<text x="592" y="218" text-anchor="middle" font-family="Helvetica,Arial" font-size="14" font-weight="700" fill="#111827" letter-spacing=".5">BAÑO 1</text>
<text x="592" y="234" text-anchor="middle" font-family="Helvetica,Arial" font-size="11" fill="#6b7280">5,4 m²</text>
<text x="592" y="374" text-anchor="middle" font-family="Helvetica,Arial" font-size="14" font-weight="700" fill="#111827" letter-spacing=".5">VESTIDOR</text>
<text x="592" y="390" text-anchor="middle" font-family="Helvetica,Arial" font-size="11" fill="#6b7280">5,4 m²</text>
<text x="592" y="358" text-anchor="middle" font-family="Helvetica,Arial" font-size="9.5" fill="#9ca3af" letter-spacing="2">W.I.C.</text>
<text x="698.6" y="296" text-anchor="middle" font-family="Helvetica,Arial" font-size="14" font-weight="700" fill="#111827" letter-spacing=".5">DORM. 1</text>
<text x="698.6" y="312" text-anchor="middle" font-family="Helvetica,Arial" font-size="11" fill="#6b7280">13,8 m²</text>
<text x="818.1999999999999" y="296" text-anchor="middle" font-family="Helvetica,Arial" font-size="14" font-weight="700" fill="#111827" letter-spacing=".5">DORM. PPAL</text>
<text x="818.1999999999999" y="312" text-anchor="middle" font-family="Helvetica,Arial" font-size="11" fill="#6b7280">13,8 m²</text>
<text x="818.1999999999999" y="280" text-anchor="middle" font-family="Helvetica,Arial" font-size="9.5" fill="#9ca3af" letter-spacing="2">SUITE</text>
<text x="592" y="530" text-anchor="middle" font-family="Helvetica,Arial" font-size="14" font-weight="700" fill="#111827" letter-spacing=".5">DORM. 3 / ESTUDIO</text>
<text x="592" y="546" text-anchor="middle" font-family="Helvetica,Arial" font-size="11" fill="#6b7280">9,0 m²</text>
<rect x="373.6" y="467.59999999999997" width="124.8" height="124.8" fill="#eef2ff"/>
<line x1="373.6" y1="481.46666666666664" x2="498.4" y2="481.46666666666664" stroke="#6366f1" stroke-width="1"/>
<line x1="373.6" y1="495.3333333333333" x2="498.4" y2="495.3333333333333" stroke="#6366f1" stroke-width="1"/>
<line x1="373.6" y1="509.2" x2="498.4" y2="509.2" stroke="#6366f1" stroke-width="1"/>
<line x1="373.6" y1="523.0666666666666" x2="498.4" y2="523.0666666666666" stroke="#6366f1" stroke-width="1"/>
<line x1="373.6" y1="536.9333333333333" x2="498.4" y2="536.9333333333333" stroke="#6366f1" stroke-width="1"/>
<line x1="373.6" y1="550.8" x2="498.4" y2="550.8" stroke="#6366f1" stroke-width="1"/>
<line x1="373.6" y1="564.6666666666666" x2="498.4" y2="564.6666666666666" stroke="#6366f1" stroke-width="1"/>
<line x1="373.6" y1="578.5333333333333" x2="498.4" y2="578.5333333333333" stroke="#6366f1" stroke-width="1"/>
<rect x="373.6" y="467.59999999999997" width="124.8" height="124.8" fill="none" stroke="#6366f1" stroke-width="1.2"/>
<line x1="436" y1="582" x2="436" y2="483.2" stroke="#4338ca" stroke-width="1.4" marker-end="url(#arr)"/>
<text x="436" y="606.4" text-anchor="middle" font-family="Helvetica,Arial" font-size="10" font-weight="700" fill="#4338ca">ESCALERA ACCESO</text>
<text x="436" y="454.59999999999997" text-anchor="middle" font-family="Helvetica,Arial" font-size="14" font-weight="700" fill="#111827" letter-spacing=".5">HALL</text>
<rect x="331.00000000000006" y="223.2" width="12.4" height="46.800000000000004" fill="#fff"/>
<line x1="337.20000000000005" y1="223.2" x2="384.00000000000006" y2="223.2" stroke="#9ca3af" stroke-width="1.4"/>
<path d="M 384.00000000000006 223.2 A 46.800000000000004 46.800000000000004 0 0 1 337.20000000000005 270" fill="none" stroke="#cbd5e1" stroke-width="1"/>
<rect x="539" y="202.4" width="12.4" height="46.800000000000004" fill="#fff"/>
<line x1="545.2" y1="202.4" x2="592" y2="202.4" stroke="#9ca3af" stroke-width="1.4"/>
<path d="M 592 202.4 A 46.800000000000004 46.800000000000004 0 0 1 545.2 249.2" fill="none" stroke="#cbd5e1" stroke-width="1"/>
<rect x="539" y="358.4" width="12.4" height="46.800000000000004" fill="#fff"/>
<line x1="545.2" y1="358.4" x2="592" y2="358.4" stroke="#9ca3af" stroke-width="1.4"/>
<path d="M 592 358.4 A 46.800000000000004 46.800000000000004 0 0 1 545.2 405.20000000000005" fill="none" stroke="#cbd5e1" stroke-width="1"/>
<rect x="632.5999999999999" y="218" width="12.4" height="46.800000000000004" fill="#fff"/>
<line x1="638.8" y1="218" x2="685.5999999999999" y2="218" stroke="#9ca3af" stroke-width="1.4"/>
<path d="M 685.5999999999999 218 A 46.800000000000004 46.800000000000004 0 0 1 638.8 264.8" fill="none" stroke="#cbd5e1" stroke-width="1"/>
<rect x="752.1999999999999" y="218" width="12.4" height="46.800000000000004" fill="#fff"/>
<line x1="758.4" y1="218" x2="805.1999999999999" y2="218" stroke="#9ca3af" stroke-width="1.4"/>
<path d="M 805.1999999999999 218 A 46.800000000000004 46.800000000000004 0 0 1 758.4 264.8" fill="none" stroke="#cbd5e1" stroke-width="1"/>
<rect x="237.40000000000003" y="358.4" width="12.4" height="41.6" fill="#fff"/>
<line x1="243.60000000000002" y1="358.4" x2="285.20000000000005" y2="358.4" stroke="#9ca3af" stroke-width="1.4"/>
<path d="M 285.20000000000005 358.4 A 41.6 41.6 0 0 1 243.60000000000002 400" fill="none" stroke="#cbd5e1" stroke-width="1"/>
<rect x="507.8" y="514.4000000000001" width="12.4" height="46.800000000000004" fill="#fff"/>
<line x1="514" y1="514.4000000000001" x2="560.8" y2="514.4000000000001" stroke="#9ca3af" stroke-width="1.4"/>
<path d="M 560.8 514.4000000000001 A 46.800000000000004 46.800000000000004 0 0 1 514 561.2" fill="none" stroke="#cbd5e1" stroke-width="1"/>
<rect x="482.8" y="601.8" width="52" height="12.4" fill="#fff"/>
<line x1="482.8" y1="608" x2="482.8" y2="660" stroke="#9ca3af" stroke-width="1.4"/>
<path d="M 482.8 660 A 52 52 0 0 0 534.8 608" fill="none" stroke="#cbd5e1" stroke-width="1"/>
<text x="514" y="642" text-anchor="middle" font-family="Helvetica,Arial" font-size="10" font-weight="700" fill="#374151">ACCESO PRINCIPAL ▲</text>
<rect x="144.8" y="212.8" width="10.4" height="62.400000000000006" fill="#fff"/>
<line x1="150" y1="212.8" x2="150" y2="275.20000000000005" stroke="#2563eb" stroke-width="2.4"/>
<line x1="147" y1="212.8" x2="147" y2="275.20000000000005" stroke="#93c5fd" stroke-width="1"/>
<line x1="153" y1="212.8" x2="153" y2="275.20000000000005" stroke="#93c5fd" stroke-width="1"/>
<rect x="202" y="134.8" width="83.2" height="10.4" fill="#fff"/>
<line x1="202" y1="140" x2="285.20000000000005" y2="140" stroke="#2563eb" stroke-width="2.4"/>
<line x1="202" y1="137" x2="285.20000000000005" y2="137" stroke="#93c5fd" stroke-width="1"/>
<line x1="202" y1="143" x2="285.20000000000005" y2="143" stroke="#93c5fd" stroke-width="1"/>
<rect x="378.8" y="134.8" width="124.79999999999997" height="10.4" fill="#fff"/>
<line x1="378.8" y1="140" x2="503.59999999999997" y2="140" stroke="#2563eb" stroke-width="2.4"/>
<line x1="378.8" y1="137" x2="503.59999999999997" y2="137" stroke="#93c5fd" stroke-width="1"/>
<line x1="378.8" y1="143" x2="503.59999999999997" y2="143" stroke="#93c5fd" stroke-width="1"/>
<rect x="670" y="134.8" width="72.80000000000001" height="10.4" fill="#fff"/>
<line x1="670" y1="140" x2="742.8000000000001" y2="140" stroke="#2563eb" stroke-width="2.4"/>
<line x1="670" y1="137" x2="742.8000000000001" y2="137" stroke="#93c5fd" stroke-width="1"/>
<line x1="670" y1="143" x2="742.8000000000001" y2="143" stroke="#93c5fd" stroke-width="1"/>
<rect x="784.4" y="134.8" width="72.80000000000001" height="10.4" fill="#fff"/>
<line x1="784.4" y1="140" x2="857.1999999999999" y2="140" stroke="#2563eb" stroke-width="2.4"/>
<line x1="784.4" y1="137" x2="857.1999999999999" y2="137" stroke="#93c5fd" stroke-width="1"/>
<line x1="784.4" y1="143" x2="857.1999999999999" y2="143" stroke="#93c5fd" stroke-width="1"/>
<rect x="872.8" y="212.8" width="10.4" height="166.39999999999998" fill="#fff"/>
<line x1="878" y1="212.8" x2="878" y2="379.2" stroke="#2563eb" stroke-width="2.4"/>
<line x1="875" y1="212.8" x2="875" y2="379.2" stroke="#93c5fd" stroke-width="1"/>
<line x1="881" y1="212.8" x2="881" y2="379.2" stroke="#93c5fd" stroke-width="1"/>
<rect x="144.8" y="348" width="10.4" height="72.80000000000001" fill="#fff"/>
<line x1="150" y1="348" x2="150" y2="420.8" stroke="#2563eb" stroke-width="2.4"/>
<line x1="147" y1="348" x2="147" y2="420.8" stroke="#93c5fd" stroke-width="1"/>
<line x1="153" y1="348" x2="153" y2="420.8" stroke="#93c5fd" stroke-width="1"/>
<rect x="664.8" y="504" width="10.4" height="72.80000000000001" fill="#fff"/>
<line x1="670" y1="504" x2="670" y2="576.8" stroke="#2563eb" stroke-width="2.4"/>
<line x1="667" y1="504" x2="667" y2="576.8" stroke="#93c5fd" stroke-width="1"/>
<line x1="673" y1="504" x2="673" y2="576.8" stroke="#93c5fd" stroke-width="1"/>
<line x1="150" y1="80" x2="878" y2="80" stroke="#b91c1c" stroke-width="1"/>
<line x1="150" y1="76" x2="150" y2="84" stroke="#b91c1c" stroke-width="1"/>
<line x1="878" y1="76" x2="878" y2="84" stroke="#b91c1c" stroke-width="1"/>
<text x="514" y="75" text-anchor="middle" font-family="Helvetica,Arial" font-size="12" font-weight="700" fill="#b91c1c">14,00</text>
<line x1="150" y1="108" x2="337.20000000000005" y2="108" stroke="#b91c1c" stroke-width="1"/>
<line x1="150" y1="104" x2="150" y2="112" stroke="#b91c1c" stroke-width="1"/>
<line x1="337.20000000000005" y1="104" x2="337.20000000000005" y2="112" stroke="#b91c1c" stroke-width="1"/>
<text x="243.60000000000002" y="103" text-anchor="middle" font-family="Helvetica,Arial" font-size="12" font-weight="700" fill="#b91c1c">3,60</text>
<line x1="337.20000000000005" y1="108" x2="545.2" y2="108" stroke="#b91c1c" stroke-width="1"/>
<line x1="337.20000000000005" y1="104" x2="337.20000000000005" y2="112" stroke="#b91c1c" stroke-width="1"/>
<line x1="545.2" y1="104" x2="545.2" y2="112" stroke="#b91c1c" stroke-width="1"/>
<text x="441.20000000000005" y="103" text-anchor="middle" font-family="Helvetica,Arial" font-size="12" font-weight="700" fill="#b91c1c">4,00</text>
<line x1="545.2" y1="108" x2="638.8" y2="108" stroke="#b91c1c" stroke-width="1"/>
<line x1="545.2" y1="104" x2="545.2" y2="112" stroke="#b91c1c" stroke-width="1"/>
<line x1="638.8" y1="104" x2="638.8" y2="112" stroke="#b91c1c" stroke-width="1"/>
<text x="592" y="103" text-anchor="middle" font-family="Helvetica,Arial" font-size="12" font-weight="700" fill="#b91c1c">1,80</text>
<line x1="638.8" y1="108" x2="758.4" y2="108" stroke="#b91c1c" stroke-width="1"/>
<line x1="638.8" y1="104" x2="638.8" y2="112" stroke="#b91c1c" stroke-width="1"/>
<line x1="758.4" y1="104" x2="758.4" y2="112" stroke="#b91c1c" stroke-width="1"/>
<text x="698.5999999999999" y="103" text-anchor="middle" font-family="Helvetica,Arial" font-size="12" font-weight="700" fill="#b91c1c">2,30</text>
<line x1="758.4" y1="108" x2="878" y2="108" stroke="#b91c1c" stroke-width="1"/>
<line x1="758.4" y1="104" x2="758.4" y2="112" stroke="#b91c1c" stroke-width="1"/>
<line x1="878" y1="104" x2="878" y2="112" stroke="#b91c1c" stroke-width="1"/>
<text x="818.2" y="103" text-anchor="middle" font-family="Helvetica,Arial" font-size="12" font-weight="700" fill="#b91c1c">2,30</text>
<line x1="95" y1="140" x2="95" y2="452" stroke="#b91c1c" stroke-width="1"/>
<line x1="91" y1="140" x2="99" y2="140" stroke="#b91c1c" stroke-width="1"/>
<line x1="91" y1="452" x2="99" y2="452" stroke="#b91c1c" stroke-width="1"/>
<text x="89" y="296" text-anchor="middle" font-family="Helvetica,Arial" font-size="12" font-weight="700" fill="#b91c1c" transform="rotate(-90 89 296)">6,00</text>
<line x1="358" y1="664" x2="670" y2="664" stroke="#b91c1c" stroke-width="1"/>
<line x1="358" y1="660" x2="358" y2="668" stroke="#b91c1c" stroke-width="1"/>
<line x1="670" y1="660" x2="670" y2="668" stroke="#b91c1c" stroke-width="1"/>
<text x="514" y="659" text-anchor="middle" font-family="Helvetica,Arial" font-size="12" font-weight="700" fill="#b91c1c">6,00</text>
<line x1="720" y1="452" x2="720" y2="608" stroke="#b91c1c" stroke-width="1"/>
<line x1="716" y1="452" x2="724" y2="452" stroke="#b91c1c" stroke-width="1"/>
<line x1="716" y1="608" x2="724" y2="608" stroke="#b91c1c" stroke-width="1"/>
<text x="714" y="530" text-anchor="middle" font-family="Helvetica,Arial" font-size="12" font-weight="700" fill="#b91c1c" transform="rotate(-90 714 530)">3,00</text>
<circle cx="948" cy="170" r="22" fill="none" stroke="#374151" stroke-width="1.2"/>
<path d="M 948 150 L 941 176 L 948 170 L 955 176 Z" fill="#374151"/>
<text x="948" y="144" text-anchor="middle" font-family="Helvetica,Arial" font-size="12" font-weight="700" fill="#374151">N</text>
<text x="918" y="602" font-family="Helvetica,Arial" font-size="10" fill="#6b7280">ESCALA GRÁFICA</text>
<rect x="918" y="610" width="52" height="6" fill="#374151" stroke="#374151" stroke-width="0.8"/>
<rect x="970" y="610" width="52" height="6" fill="#fff" stroke="#374151" stroke-width="0.8"/>
<rect x="1022" y="610" width="52" height="6" fill="#374151" stroke="#374151" stroke-width="0.8"/>
<rect x="1074" y="610" width="52" height="6" fill="#fff" stroke="#374151" stroke-width="0.8"/>
<rect x="1126" y="610" width="52" height="6" fill="#374151" stroke="#374151" stroke-width="0.8"/>
<text x="918" y="628" text-anchor="middle" font-family="Helvetica,Arial" font-size="9" fill="#6b7280">0</text>
<text x="970" y="628" text-anchor="middle" font-family="Helvetica,Arial" font-size="9" fill="#6b7280">1</text>
<text x="1022" y="628" text-anchor="middle" font-family="Helvetica,Arial" font-size="9" fill="#6b7280">2</text>
<text x="1074" y="628" text-anchor="middle" font-family="Helvetica,Arial" font-size="9" fill="#6b7280">3</text>
<text x="1126" y="628" text-anchor="middle" font-family="Helvetica,Arial" font-size="9" fill="#6b7280">4</text>
<text x="1178" y="628" text-anchor="middle" font-family="Helvetica,Arial" font-size="9" fill="#6b7280">5</text>
<text x="1188" y="616" font-family="Helvetica,Arial" font-size="9" fill="#6b7280">m</text>
<rect x="918" y="230" width="280" height="318" rx="6" fill="#ffffff" stroke="#e5e7eb"/>
<text x="932" y="254" font-family="Helvetica,Arial" font-size="13" font-weight="700" fill="#111827">REFERENCIAS</text>
<rect x="932" y="265" width="22" height="11" fill="#1f2937"/>
<text x="962" y="274" font-family="Helvetica,Arial" font-size="11" fill="#374151">Muro exterior 0,20 m</text>
<rect x="932" y="287" width="22" height="11" fill="#6b7280"/>
<text x="962" y="296" font-family="Helvetica,Arial" font-size="11" fill="#374151">Tabique interior 0,10 m</text>
<rect x="932" y="309" width="22" height="11" fill="#2563eb"/>
<text x="962" y="318" font-family="Helvetica,Arial" font-size="11" fill="#374151">Ventana</text>
<rect x="932" y="331" width="22" height="11" fill="#cbd5e1"/>
<text x="962" y="340" font-family="Helvetica,Arial" font-size="11" fill="#374151">Puerta (barrido)</text>
<rect x="932" y="353" width="22" height="11" fill="#6366f1"/>
<text x="962" y="362" font-family="Helvetica,Arial" font-size="11" fill="#374151">Escalera (sube ▲)</text>
<rect x="932" y="375" width="22" height="11" fill="#eaf2f8"/>
<text x="962" y="384" font-family="Helvetica,Arial" font-size="11" fill="#374151">Local húmedo</text>
<line x1="932" y1="412" x2="1184" y2="412" stroke="#e5e7eb"/>
<text x="932" y="432" font-family="Helvetica,Arial" font-size="12" font-weight="700" fill="#111827">SUPERFICIES</text>
<text x="932" y="452" font-family="Helvetica,Arial" font-size="11" fill="#374151" font-weight="400">Cuerpo principal 14×6 ......... 84,0 m²</text>
<text x="932" y="470" font-family="Helvetica,Arial" font-size="11" fill="#374151" font-weight="400">Extensión en T 6×3 ............... 18,0 m²</text>
<text x="932" y="488" font-family="Helvetica,Arial" font-size="11" fill="#111827" font-weight="700">TOTAL CUBIERTO .................. 102,0 m²</text>
<text x="932" y="522" font-family="Helvetica,Arial" font-size="9.5" fill="#9ca3af">Vivienda elevada s/platea + pilotes.</text>
<text x="932" y="536" font-family="Helvetica,Arial" font-size="9.5" fill="#9ca3af">Cotas en metros. Medidas a verificar en obra.</text>
<rect x="80" y="610" width="798" height="70" fill="#1A3A5C"/>
<text x="98" y="638" font-family="Helvetica,Arial" font-size="16" font-weight="700" fill="#fff" letter-spacing=".5">VIVIENDA UNIFAMILIAR — RECONSTRUCCIÓN</text>
<text x="98" y="658" font-family="Helvetica,Arial" font-size="11" fill="#cdd9e6">Planta arquitectónica · Nivel acceso (elevado) · Esc. 1:100</text>
<text x="98" y="672" font-family="Helvetica,Arial" font-size="9" fill="#9bb3cc">BMC · METALOG SAS — Dolores, Uruguay · PROPUESTA s/croquis del cliente (borrador para revisión)</text>
<text x="860" y="650" text-anchor="end" font-family="Helvetica,Arial" font-size="11" fill="#cdd9e6">Lám. 01 · Planta general</text>
</svg>